<svg xmlns="http://www.w3.org/2000/svg" xmlns:xlink="http://www.w3.org/1999/xlink" width="600" height="400" viewBox="0 0 2400 1600">
<defs>
  <clipPath id="clip140">
    <rect x="0" y="0" width="2400" height="1600"></rect>
  </clipPath>
</defs>
<path clip-path="url(#clip140)" d="M0 1600 L2400 1600 L2400 0 L0 0  Z" fill="#ffffff" fill-rule="evenodd" fill-opacity="1"></path>
<defs>
  <clipPath id="clip141">
    <rect x="480" y="0" width="1681" height="1600"></rect>
  </clipPath>
</defs>
<path clip-path="url(#clip140)" d="M205.121 1423.18 L2352.76 1423.18 L2352.76 47.2441 L205.121 47.2441  Z" fill="#ffffff" fill-rule="evenodd" fill-opacity="1"></path>
<defs>
  <clipPath id="clip142">
    <rect x="205" y="47" width="2149" height="1377"></rect>
  </clipPath>
</defs>
<polyline clip-path="url(#clip142)" style="stroke:#000000; stroke-linecap:round; stroke-linejoin:round; stroke-width:2; stroke-opacity:0.1; fill:none" points="265.903,1423.18 265.903,47.2441 "></polyline>
<polyline clip-path="url(#clip142)" style="stroke:#000000; stroke-linecap:round; stroke-linejoin:round; stroke-width:2; stroke-opacity:0.1; fill:none" points="671.117,1423.18 671.117,47.2441 "></polyline>
<polyline clip-path="url(#clip142)" style="stroke:#000000; stroke-linecap:round; stroke-linejoin:round; stroke-width:2; stroke-opacity:0.1; fill:none" points="1076.33,1423.18 1076.33,47.2441 "></polyline>
<polyline clip-path="url(#clip142)" style="stroke:#000000; stroke-linecap:round; stroke-linejoin:round; stroke-width:2; stroke-opacity:0.1; fill:none" points="1481.55,1423.18 1481.55,47.2441 "></polyline>
<polyline clip-path="url(#clip142)" style="stroke:#000000; stroke-linecap:round; stroke-linejoin:round; stroke-width:2; stroke-opacity:0.1; fill:none" points="1886.76,1423.18 1886.76,47.2441 "></polyline>
<polyline clip-path="url(#clip142)" style="stroke:#000000; stroke-linecap:round; stroke-linejoin:round; stroke-width:2; stroke-opacity:0.1; fill:none" points="2291.97,1423.18 2291.97,47.2441 "></polyline>
<polyline clip-path="url(#clip140)" style="stroke:#000000; stroke-linecap:round; stroke-linejoin:round; stroke-width:4; stroke-opacity:1; fill:none" points="205.121,1423.18 2352.76,1423.18 "></polyline>
<polyline clip-path="url(#clip140)" style="stroke:#000000; stroke-linecap:round; stroke-linejoin:round; stroke-width:4; stroke-opacity:1; fill:none" points="265.903,1423.18 265.903,1404.28 "></polyline>
<polyline clip-path="url(#clip140)" style="stroke:#000000; stroke-linecap:round; stroke-linejoin:round; stroke-width:4; stroke-opacity:1; fill:none" points="671.117,1423.18 671.117,1404.28 "></polyline>
<polyline clip-path="url(#clip140)" style="stroke:#000000; stroke-linecap:round; stroke-linejoin:round; stroke-width:4; stroke-opacity:1; fill:none" points="1076.33,1423.18 1076.33,1404.28 "></polyline>
<polyline clip-path="url(#clip140)" style="stroke:#000000; stroke-linecap:round; stroke-linejoin:round; stroke-width:4; stroke-opacity:1; fill:none" points="1481.55,1423.18 1481.55,1404.28 "></polyline>
<polyline clip-path="url(#clip140)" style="stroke:#000000; stroke-linecap:round; stroke-linejoin:round; stroke-width:4; stroke-opacity:1; fill:none" points="1886.76,1423.18 1886.76,1404.28 "></polyline>
<polyline clip-path="url(#clip140)" style="stroke:#000000; stroke-linecap:round; stroke-linejoin:round; stroke-width:4; stroke-opacity:1; fill:none" points="2291.97,1423.18 2291.97,1404.28 "></polyline>
<path clip-path="url(#clip140)" d="M265.903 1454.1 Q262.292 1454.1 260.463 1457.66 Q258.658 1461.2 258.658 1468.33 Q258.658 1475.44 260.463 1479.01 Q262.292 1482.55 265.903 1482.55 Q269.537 1482.55 271.343 1479.01 Q273.172 1475.44 273.172 1468.33 Q273.172 1461.2 271.343 1457.66 Q269.537 1454.1 265.903 1454.1 M265.903 1450.39 Q271.713 1450.39 274.769 1455 Q277.847 1459.58 277.847 1468.33 Q277.847 1477.06 274.769 1481.67 Q271.713 1486.25 265.903 1486.25 Q260.093 1486.25 257.014 1481.67 Q253.959 1477.06 253.959 1468.33 Q253.959 1459.58 257.014 1455 Q260.093 1450.39 265.903 1450.39 Z" fill="#000000" fill-rule="nonzero" fill-opacity="1"></path><path clip-path="url(#clip140)" d="M661.499 1481.64 L669.138 1481.64 L669.138 1455.28 L660.828 1456.95 L660.828 1452.69 L669.092 1451.02 L673.768 1451.02 L673.768 1481.64 L681.407 1481.64 L681.407 1485.58 L661.499 1485.58 L661.499 1481.64 Z" fill="#000000" fill-rule="nonzero" fill-opacity="1"></path><path clip-path="url(#clip140)" d="M1070.98 1481.64 L1087.3 1481.64 L1087.3 1485.58 L1065.36 1485.58 L1065.36 1481.64 Q1068.02 1478.89 1072.6 1474.26 Q1077.21 1469.61 1078.39 1468.27 Q1080.64 1465.74 1081.52 1464.01 Q1082.42 1462.25 1082.42 1460.56 Q1082.42 1457.8 1080.47 1456.07 Q1078.55 1454.33 1075.45 1454.33 Q1073.25 1454.33 1070.8 1455.09 Q1068.37 1455.86 1065.59 1457.41 L1065.59 1452.69 Q1068.41 1451.55 1070.87 1450.97 Q1073.32 1450.39 1075.36 1450.39 Q1080.73 1450.39 1083.92 1453.08 Q1087.12 1455.77 1087.12 1460.26 Q1087.12 1462.39 1086.31 1464.31 Q1085.52 1466.2 1083.41 1468.8 Q1082.84 1469.47 1079.73 1472.69 Q1076.63 1475.88 1070.98 1481.64 Z" fill="#000000" fill-rule="nonzero" fill-opacity="1"></path><path clip-path="url(#clip140)" d="M1485.79 1466.95 Q1489.15 1467.66 1491.02 1469.93 Q1492.92 1472.2 1492.92 1475.53 Q1492.92 1480.65 1489.4 1483.45 Q1485.89 1486.25 1479.4 1486.25 Q1477.23 1486.25 1474.91 1485.81 Q1472.62 1485.39 1470.17 1484.54 L1470.17 1480.02 Q1472.11 1481.16 1474.43 1481.74 Q1476.74 1482.32 1479.27 1482.32 Q1483.66 1482.32 1485.96 1480.58 Q1488.27 1478.84 1488.27 1475.53 Q1488.27 1472.48 1486.12 1470.77 Q1483.99 1469.03 1480.17 1469.03 L1476.14 1469.03 L1476.14 1465.19 L1480.35 1465.19 Q1483.8 1465.19 1485.63 1463.82 Q1487.46 1462.43 1487.46 1459.84 Q1487.46 1457.18 1485.56 1455.77 Q1483.69 1454.33 1480.17 1454.33 Q1478.25 1454.33 1476.05 1454.75 Q1473.85 1455.16 1471.21 1456.04 L1471.21 1451.88 Q1473.87 1451.14 1476.19 1450.77 Q1478.52 1450.39 1480.58 1450.39 Q1485.91 1450.39 1489.01 1452.83 Q1492.11 1455.23 1492.11 1459.35 Q1492.11 1462.22 1490.47 1464.21 Q1488.83 1466.18 1485.79 1466.95 Z" fill="#000000" fill-rule="nonzero" fill-opacity="1"></path><path clip-path="url(#clip140)" d="M1889.77 1455.09 L1877.96 1473.54 L1889.77 1473.54 L1889.77 1455.09 M1888.54 1451.02 L1894.42 1451.02 L1894.42 1473.54 L1899.35 1473.54 L1899.35 1477.43 L1894.42 1477.43 L1894.42 1485.58 L1889.77 1485.58 L1889.77 1477.43 L1874.17 1477.43 L1874.17 1472.92 L1888.54 1451.02 Z" fill="#000000" fill-rule="nonzero" fill-opacity="1"></path><path clip-path="url(#clip140)" d="M2282.25 1451.02 L2300.61 1451.02 L2300.61 1454.96 L2286.53 1454.96 L2286.53 1463.43 Q2287.55 1463.08 2288.57 1462.92 Q2289.59 1462.73 2290.61 1462.73 Q2296.4 1462.73 2299.77 1465.9 Q2303.15 1469.08 2303.15 1474.49 Q2303.15 1480.07 2299.68 1483.17 Q2296.21 1486.25 2289.89 1486.25 Q2287.71 1486.25 2285.45 1485.88 Q2283.2 1485.51 2280.79 1484.77 L2280.79 1480.07 Q2282.88 1481.2 2285.1 1481.76 Q2287.32 1482.32 2289.8 1482.32 Q2293.8 1482.32 2296.14 1480.21 Q2298.48 1478.1 2298.48 1474.49 Q2298.48 1470.88 2296.14 1468.77 Q2293.8 1466.67 2289.8 1466.67 Q2287.92 1466.67 2286.05 1467.08 Q2284.2 1467.5 2282.25 1468.38 L2282.25 1451.02 Z" fill="#000000" fill-rule="nonzero" fill-opacity="1"></path><path clip-path="url(#clip140)" d="M1278 1522.27 L1278 1532.4 L1290.06 1532.4 L1290.06 1536.95 L1278 1536.95 L1278 1556.3 Q1278 1560.66 1279.18 1561.9 Q1280.39 1563.14 1284.05 1563.14 L1290.06 1563.14 L1290.06 1568.04 L1284.05 1568.04 Q1277.27 1568.04 1274.69 1565.53 Q1272.11 1562.98 1272.11 1556.3 L1272.11 1536.95 L1267.81 1536.95 L1267.81 1532.4 L1272.11 1532.4 L1272.11 1522.27 L1278 1522.27 Z" fill="#000000" fill-rule="nonzero" fill-opacity="1"></path><polyline clip-path="url(#clip142)" style="stroke:#000000; stroke-linecap:round; stroke-linejoin:round; stroke-width:2; stroke-opacity:0.1; fill:none" points="205.121,1401.53 2352.76,1401.53 "></polyline>
<polyline clip-path="url(#clip142)" style="stroke:#000000; stroke-linecap:round; stroke-linejoin:round; stroke-width:2; stroke-opacity:0.1; fill:none" points="205.121,1055.78 2352.76,1055.78 "></polyline>
<polyline clip-path="url(#clip142)" style="stroke:#000000; stroke-linecap:round; stroke-linejoin:round; stroke-width:2; stroke-opacity:0.1; fill:none" points="205.121,710.042 2352.76,710.042 "></polyline>
<polyline clip-path="url(#clip142)" style="stroke:#000000; stroke-linecap:round; stroke-linejoin:round; stroke-width:2; stroke-opacity:0.1; fill:none" points="205.121,364.3 2352.76,364.3 "></polyline>
<polyline clip-path="url(#clip140)" style="stroke:#000000; stroke-linecap:round; stroke-linejoin:round; stroke-width:4; stroke-opacity:1; fill:none" points="205.121,1423.18 205.121,47.2441 "></polyline>
<polyline clip-path="url(#clip140)" style="stroke:#000000; stroke-linecap:round; stroke-linejoin:round; stroke-width:4; stroke-opacity:1; fill:none" points="205.121,1401.53 224.019,1401.53 "></polyline>
<polyline clip-path="url(#clip140)" style="stroke:#000000; stroke-linecap:round; stroke-linejoin:round; stroke-width:4; stroke-opacity:1; fill:none" points="205.121,1055.78 224.019,1055.78 "></polyline>
<polyline clip-path="url(#clip140)" style="stroke:#000000; stroke-linecap:round; stroke-linejoin:round; stroke-width:4; stroke-opacity:1; fill:none" points="205.121,710.042 224.019,710.042 "></polyline>
<polyline clip-path="url(#clip140)" style="stroke:#000000; stroke-linecap:round; stroke-linejoin:round; stroke-width:4; stroke-opacity:1; fill:none" points="205.121,364.3 224.019,364.3 "></polyline>
<path clip-path="url(#clip140)" d="M157.177 1387.32 Q153.566 1387.32 151.737 1390.89 Q149.931 1394.43 149.931 1401.56 Q149.931 1408.67 151.737 1412.23 Q153.566 1415.77 157.177 1415.77 Q160.811 1415.77 162.616 1412.23 Q164.445 1408.67 164.445 1401.56 Q164.445 1394.43 162.616 1390.89 Q160.811 1387.32 157.177 1387.32 M157.177 1383.62 Q162.987 1383.62 166.042 1388.23 Q169.121 1392.81 169.121 1401.56 Q169.121 1410.29 166.042 1414.89 Q162.987 1419.48 157.177 1419.48 Q151.366 1419.48 148.288 1414.89 Q145.232 1410.29 145.232 1401.56 Q145.232 1392.81 148.288 1388.23 Q151.366 1383.62 157.177 1383.62 Z" fill="#000000" fill-rule="nonzero" fill-opacity="1"></path><path clip-path="url(#clip140)" d="M121.043 1069.13 L137.362 1069.13 L137.362 1073.06 L115.418 1073.06 L115.418 1069.13 Q118.08 1066.37 122.663 1061.74 Q127.269 1057.09 128.45 1055.75 Q130.695 1053.23 131.575 1051.49 Q132.478 1049.73 132.478 1048.04 Q132.478 1045.29 130.533 1043.55 Q128.612 1041.81 125.51 1041.81 Q123.311 1041.81 120.857 1042.58 Q118.427 1043.34 115.649 1044.89 L115.649 1040.17 Q118.473 1039.04 120.927 1038.46 Q123.38 1037.88 125.418 1037.88 Q130.788 1037.88 133.982 1040.56 Q137.177 1043.25 137.177 1047.74 Q137.177 1049.87 136.367 1051.79 Q135.579 1053.69 133.473 1056.28 Q132.894 1056.95 129.792 1060.17 Q126.691 1063.36 121.043 1069.13 Z" fill="#000000" fill-rule="nonzero" fill-opacity="1"></path><path clip-path="url(#clip140)" d="M157.177 1041.58 Q153.566 1041.58 151.737 1045.15 Q149.931 1048.69 149.931 1055.82 Q149.931 1062.92 151.737 1066.49 Q153.566 1070.03 157.177 1070.03 Q160.811 1070.03 162.616 1066.49 Q164.445 1062.92 164.445 1055.82 Q164.445 1048.69 162.616 1045.15 Q160.811 1041.58 157.177 1041.58 M157.177 1037.88 Q162.987 1037.88 166.042 1042.48 Q169.121 1047.07 169.121 1055.82 Q169.121 1064.54 166.042 1069.15 Q162.987 1073.73 157.177 1073.73 Q151.366 1073.73 148.288 1069.15 Q145.232 1064.54 145.232 1055.82 Q145.232 1047.07 148.288 1042.48 Q151.366 1037.88 157.177 1037.88 Z" fill="#000000" fill-rule="nonzero" fill-opacity="1"></path><path clip-path="url(#clip140)" d="M129.862 696.836 L118.056 715.285 L129.862 715.285 L129.862 696.836 M128.635 692.762 L134.515 692.762 L134.515 715.285 L139.445 715.285 L139.445 719.173 L134.515 719.173 L134.515 727.322 L129.862 727.322 L129.862 719.173 L114.26 719.173 L114.26 714.66 L128.635 692.762 Z" fill="#000000" fill-rule="nonzero" fill-opacity="1"></path><path clip-path="url(#clip140)" d="M157.177 695.84 Q153.566 695.84 151.737 699.405 Q149.931 702.947 149.931 710.076 Q149.931 717.183 151.737 720.748 Q153.566 724.289 157.177 724.289 Q160.811 724.289 162.616 720.748 Q164.445 717.183 164.445 710.076 Q164.445 702.947 162.616 699.405 Q160.811 695.84 157.177 695.84 M157.177 692.137 Q162.987 692.137 166.042 696.743 Q169.121 701.326 169.121 710.076 Q169.121 718.803 166.042 723.41 Q162.987 727.993 157.177 727.993 Q151.366 727.993 148.288 723.41 Q145.232 718.803 145.232 710.076 Q145.232 701.326 148.288 696.743 Q151.366 692.137 157.177 692.137 Z" fill="#000000" fill-rule="nonzero" fill-opacity="1"></path><path clip-path="url(#clip140)" d="M127.593 362.436 Q124.445 362.436 122.593 364.589 Q120.765 366.742 120.765 370.492 Q120.765 374.219 122.593 376.395 Q124.445 378.547 127.593 378.547 Q130.742 378.547 132.57 376.395 Q134.422 374.219 134.422 370.492 Q134.422 366.742 132.57 364.589 Q130.742 362.436 127.593 362.436 M136.876 347.784 L136.876 352.043 Q135.117 351.209 133.311 350.77 Q131.529 350.33 129.769 350.33 Q125.14 350.33 122.686 353.455 Q120.255 356.58 119.908 362.899 Q121.274 360.885 123.334 359.821 Q125.394 358.733 127.871 358.733 Q133.08 358.733 136.089 361.904 Q139.121 365.052 139.121 370.492 Q139.121 375.816 135.973 379.033 Q132.825 382.251 127.593 382.251 Q121.598 382.251 118.427 377.668 Q115.256 373.061 115.256 364.334 Q115.256 356.14 119.144 351.279 Q123.033 346.395 129.584 346.395 Q131.343 346.395 133.126 346.742 Q134.931 347.089 136.876 347.784 Z" fill="#000000" fill-rule="nonzero" fill-opacity="1"></path><path clip-path="url(#clip140)" d="M157.177 350.098 Q153.566 350.098 151.737 353.663 Q149.931 357.205 149.931 364.334 Q149.931 371.441 151.737 375.006 Q153.566 378.547 157.177 378.547 Q160.811 378.547 162.616 375.006 Q164.445 371.441 164.445 364.334 Q164.445 357.205 162.616 353.663 Q160.811 350.098 157.177 350.098 M157.177 346.395 Q162.987 346.395 166.042 351.001 Q169.121 355.584 169.121 364.334 Q169.121 373.061 166.042 377.668 Q162.987 382.251 157.177 382.251 Q151.366 382.251 148.288 377.668 Q145.232 373.061 145.232 364.334 Q145.232 355.584 148.288 351.001 Q151.366 346.395 157.177 346.395 Z" fill="#000000" fill-rule="nonzero" fill-opacity="1"></path><path clip-path="url(#clip140)" d="M28.3562 833.292 L45.7028 846.182 L64.0042 832.623 L64.0042 839.53 L49.9996 849.906 L64.0042 860.282 L64.0042 867.189 L45.3526 853.344 L28.3562 866.011 L28.3562 859.105 L41.0558 849.651 L28.3562 840.198 L28.3562 833.292 Z" fill="#000000" fill-rule="nonzero" fill-opacity="1"></path><path clip-path="url(#clip140)" d="M14.5426 810.28 Q21.8632 814.545 29.0246 816.613 Q36.186 818.682 43.5384 818.682 Q50.8908 818.682 58.1159 816.613 Q65.3091 814.513 72.5979 810.28 L72.5979 815.372 Q65.1182 820.146 57.8931 822.534 Q50.668 824.889 43.5384 824.889 Q36.4406 824.889 29.2474 822.534 Q22.0542 820.178 14.5426 815.372 L14.5426 810.28 Z" fill="#000000" fill-rule="nonzero" fill-opacity="1"></path><path clip-path="url(#clip140)" d="M18.2347 793.124 L28.3562 793.124 L28.3562 781.061 L32.9077 781.061 L32.9077 793.124 L52.2594 793.124 Q56.6199 793.124 57.8613 791.946 Q59.1026 790.737 59.1026 787.077 L59.1026 781.061 L64.0042 781.061 L64.0042 787.077 Q64.0042 793.856 61.4897 796.434 Q58.9434 799.012 52.2594 799.012 L32.9077 799.012 L32.9077 803.309 L28.3562 803.309 L28.3562 799.012 L18.2347 799.012 L18.2347 793.124 Z" fill="#000000" fill-rule="nonzero" fill-opacity="1"></path><path clip-path="url(#clip140)" d="M14.5426 774.281 L14.5426 769.189 Q22.0542 764.415 29.2474 762.059 Q36.4406 759.672 43.5384 759.672 Q50.668 759.672 57.8931 762.059 Q65.1182 764.415 72.5979 769.189 L72.5979 774.281 Q65.3091 770.048 58.1159 767.979 Q50.8908 765.879 43.5384 765.879 Q36.186 765.879 29.0246 767.979 Q21.8632 770.048 14.5426 774.281 Z" fill="#000000" fill-rule="nonzero" fill-opacity="1"></path><path clip-path="url(#clip140)" d="M55.9197 746.432 L55.9197 739.716 L61.3942 739.716 L71.5793 744.936 L71.5793 749.041 L61.3942 746.432 L55.9197 746.432 Z" fill="#000000" fill-rule="nonzero" fill-opacity="1"></path><path clip-path="url(#clip140)" d="M67.3143 691.655 Q73.68 694.137 75.6216 696.493 Q77.5631 698.848 77.5631 702.795 L77.5631 707.473 L72.6615 707.473 L72.6615 704.036 Q72.6615 701.617 71.5157 700.28 Q70.3699 698.943 66.1048 697.32 L63.4312 696.27 L28.3562 710.688 L28.3562 704.482 L56.238 693.342 L28.3562 682.202 L28.3562 675.995 L67.3143 691.655 Z" fill="#000000" fill-rule="nonzero" fill-opacity="1"></path><path clip-path="url(#clip140)" d="M14.5426 653.842 Q21.8632 658.107 29.0246 660.176 Q36.186 662.245 43.5384 662.245 Q50.8908 662.245 58.1159 660.176 Q65.3091 658.076 72.5979 653.842 L72.5979 658.935 Q65.1182 663.709 57.8931 666.096 Q50.668 668.452 43.5384 668.452 Q36.4406 668.452 29.2474 666.096 Q22.0542 663.741 14.5426 658.935 L14.5426 653.842 Z" fill="#000000" fill-rule="nonzero" fill-opacity="1"></path><path clip-path="url(#clip140)" d="M18.2347 636.687 L28.3562 636.687 L28.3562 624.624 L32.9077 624.624 L32.9077 636.687 L52.2594 636.687 Q56.6199 636.687 57.8613 635.509 Q59.1026 634.3 59.1026 630.639 L59.1026 624.624 L64.0042 624.624 L64.0042 630.639 Q64.0042 637.419 61.4897 639.997 Q58.9434 642.575 52.2594 642.575 L32.9077 642.575 L32.9077 646.872 L28.3562 646.872 L28.3562 642.575 L18.2347 642.575 L18.2347 636.687 Z" fill="#000000" fill-rule="nonzero" fill-opacity="1"></path><path clip-path="url(#clip140)" d="M14.5426 617.844 L14.5426 612.752 Q22.0542 607.977 29.2474 605.622 Q36.4406 603.235 43.5384 603.235 Q50.668 603.235 57.8931 605.622 Q65.1182 607.977 72.5979 612.752 L72.5979 617.844 Q65.3091 613.611 58.1159 611.542 Q50.8908 609.442 43.5384 609.442 Q36.186 609.442 29.0246 611.542 Q21.8632 613.611 14.5426 617.844 Z" fill="#000000" fill-rule="nonzero" fill-opacity="1"></path><polyline clip-path="url(#clip142)" style="stroke:#ff0000; stroke-linecap:round; stroke-linejoin:round; stroke-width:4; stroke-opacity:1; fill:none" points="265.903,1228.65 671.117,1122.92 1076.33,957.506 1481.55,718.052 1886.76,489.829 2291.97,771.514 "></polyline>
<polyline clip-path="url(#clip142)" style="stroke:#ff0000; stroke-linecap:round; stroke-linejoin:round; stroke-width:4; stroke-opacity:1; fill:none" points="265.903,1384.24 671.117,1378.47 1076.33,1362.99 1481.55,1309.77 1886.76,1062.54 2291.97,86.1857 "></polyline>
<circle clip-path="url(#clip142)" cx="265.903" cy="1228.65" r="14.4" fill="#000000" fill-rule="evenodd" fill-opacity="1" stroke="none"></circle>
<circle clip-path="url(#clip142)" cx="306.425" cy="1220.16" r="14.4" fill="#000000" fill-rule="evenodd" fill-opacity="1" stroke="none"></circle>
<circle clip-path="url(#clip142)" cx="346.946" cy="1211.25" r="14.4" fill="#000000" fill-rule="evenodd" fill-opacity="1" stroke="none"></circle>
<circle clip-path="url(#clip142)" cx="387.467" cy="1201.92" r="14.4" fill="#000000" fill-rule="evenodd" fill-opacity="1" stroke="none"></circle>
<circle clip-path="url(#clip142)" cx="427.989" cy="1192.14" r="14.4" fill="#000000" fill-rule="evenodd" fill-opacity="1" stroke="none"></circle>
<circle clip-path="url(#clip142)" cx="468.51" cy="1181.89" r="14.4" fill="#000000" fill-rule="evenodd" fill-opacity="1" stroke="none"></circle>
<circle clip-path="url(#clip142)" cx="509.032" cy="1171.16" r="14.4" fill="#000000" fill-rule="evenodd" fill-opacity="1" stroke="none"></circle>
<circle clip-path="url(#clip142)" cx="549.553" cy="1159.92" r="14.4" fill="#000000" fill-rule="evenodd" fill-opacity="1" stroke="none"></circle>
<circle clip-path="url(#clip142)" cx="590.074" cy="1148.15" r="14.4" fill="#000000" fill-rule="evenodd" fill-opacity="1" stroke="none"></circle>
<circle clip-path="url(#clip142)" cx="630.596" cy="1135.83" r="14.4" fill="#000000" fill-rule="evenodd" fill-opacity="1" stroke="none"></circle>
<circle clip-path="url(#clip142)" cx="671.117" cy="1122.93" r="14.4" fill="#000000" fill-rule="evenodd" fill-opacity="1" stroke="none"></circle>
<circle clip-path="url(#clip142)" cx="711.639" cy="1109.44" r="14.4" fill="#000000" fill-rule="evenodd" fill-opacity="1" stroke="none"></circle>
<circle clip-path="url(#clip142)" cx="752.16" cy="1095.33" r="14.4" fill="#000000" fill-rule="evenodd" fill-opacity="1" stroke="none"></circle>
<circle clip-path="url(#clip142)" cx="792.681" cy="1080.58" r="14.4" fill="#000000" fill-rule="evenodd" fill-opacity="1" stroke="none"></circle>
<circle clip-path="url(#clip142)" cx="833.203" cy="1065.16" r="14.4" fill="#000000" fill-rule="evenodd" fill-opacity="1" stroke="none"></circle>
<circle clip-path="url(#clip142)" cx="873.724" cy="1049.06" r="14.4" fill="#000000" fill-rule="evenodd" fill-opacity="1" stroke="none"></circle>
<circle clip-path="url(#clip142)" cx="914.246" cy="1032.25" r="14.4" fill="#000000" fill-rule="evenodd" fill-opacity="1" stroke="none"></circle>
<circle clip-path="url(#clip142)" cx="954.767" cy="1014.71" r="14.4" fill="#000000" fill-rule="evenodd" fill-opacity="1" stroke="none"></circle>
<circle clip-path="url(#clip142)" cx="995.289" cy="996.428" r="14.4" fill="#000000" fill-rule="evenodd" fill-opacity="1" stroke="none"></circle>
<circle clip-path="url(#clip142)" cx="1035.81" cy="977.378" r="14.4" fill="#000000" fill-rule="evenodd" fill-opacity="1" stroke="none"></circle>
<circle clip-path="url(#clip142)" cx="1076.33" cy="957.551" r="14.4" fill="#000000" fill-rule="evenodd" fill-opacity="1" stroke="none"></circle>
<circle clip-path="url(#clip142)" cx="1116.85" cy="936.936" r="14.4" fill="#000000" fill-rule="evenodd" fill-opacity="1" stroke="none"></circle>
<circle clip-path="url(#clip142)" cx="1157.37" cy="915.528" r="14.4" fill="#000000" fill-rule="evenodd" fill-opacity="1" stroke="none"></circle>
<circle clip-path="url(#clip142)" cx="1197.9" cy="893.328" r="14.4" fill="#000000" fill-rule="evenodd" fill-opacity="1" stroke="none"></circle>
<circle clip-path="url(#clip142)" cx="1238.42" cy="870.345" r="14.4" fill="#000000" fill-rule="evenodd" fill-opacity="1" stroke="none"></circle>
<circle clip-path="url(#clip142)" cx="1278.94" cy="846.596" r="14.4" fill="#000000" fill-rule="evenodd" fill-opacity="1" stroke="none"></circle>
<circle clip-path="url(#clip142)" cx="1319.46" cy="822.113" r="14.4" fill="#000000" fill-rule="evenodd" fill-opacity="1" stroke="none"></circle>
<circle clip-path="url(#clip142)" cx="1359.98" cy="796.941" r="14.4" fill="#000000" fill-rule="evenodd" fill-opacity="1" stroke="none"></circle>
<circle clip-path="url(#clip142)" cx="1400.5" cy="771.145" r="14.4" fill="#000000" fill-rule="evenodd" fill-opacity="1" stroke="none"></circle>
<circle clip-path="url(#clip142)" cx="1441.02" cy="744.812" r="14.4" fill="#000000" fill-rule="evenodd" fill-opacity="1" stroke="none"></circle>
<circle clip-path="url(#clip142)" cx="1481.55" cy="718.061" r="14.4" fill="#000000" fill-rule="evenodd" fill-opacity="1" stroke="none"></circle>
<circle clip-path="url(#clip142)" cx="1522.07" cy="691.041" r="14.4" fill="#000000" fill-rule="evenodd" fill-opacity="1" stroke="none"></circle>
<circle clip-path="url(#clip142)" cx="1562.59" cy="663.947" r="14.4" fill="#000000" fill-rule="evenodd" fill-opacity="1" stroke="none"></circle>
<circle clip-path="url(#clip142)" cx="1603.11" cy="637.026" r="14.4" fill="#000000" fill-rule="evenodd" fill-opacity="1" stroke="none"></circle>
<circle clip-path="url(#clip142)" cx="1643.63" cy="610.585" r="14.4" fill="#000000" fill-rule="evenodd" fill-opacity="1" stroke="none"></circle>
<circle clip-path="url(#clip142)" cx="1684.15" cy="585.005" r="14.4" fill="#000000" fill-rule="evenodd" fill-opacity="1" stroke="none"></circle>
<circle clip-path="url(#clip142)" cx="1724.67" cy="560.751" r="14.4" fill="#000000" fill-rule="evenodd" fill-opacity="1" stroke="none"></circle>
<circle clip-path="url(#clip142)" cx="1765.2" cy="538.386" r="14.4" fill="#000000" fill-rule="evenodd" fill-opacity="1" stroke="none"></circle>
<circle clip-path="url(#clip142)" cx="1805.72" cy="518.577" r="14.4" fill="#000000" fill-rule="evenodd" fill-opacity="1" stroke="none"></circle>
<circle clip-path="url(#clip142)" cx="1846.24" cy="502.104" r="14.4" fill="#000000" fill-rule="evenodd" fill-opacity="1" stroke="none"></circle>
<circle clip-path="url(#clip142)" cx="1886.76" cy="489.853" r="14.4" fill="#000000" fill-rule="evenodd" fill-opacity="1" stroke="none"></circle>
<circle clip-path="url(#clip142)" cx="1927.28" cy="482.801" r="14.4" fill="#000000" fill-rule="evenodd" fill-opacity="1" stroke="none"></circle>
<circle clip-path="url(#clip142)" cx="1967.8" cy="481.981" r="14.4" fill="#000000" fill-rule="evenodd" fill-opacity="1" stroke="none"></circle>
<circle clip-path="url(#clip142)" cx="2008.32" cy="488.418" r="14.4" fill="#000000" fill-rule="evenodd" fill-opacity="1" stroke="none"></circle>
<circle clip-path="url(#clip142)" cx="2048.85" cy="503.04" r="14.4" fill="#000000" fill-rule="evenodd" fill-opacity="1" stroke="none"></circle>
<circle clip-path="url(#clip142)" cx="2089.37" cy="526.555" r="14.4" fill="#000000" fill-rule="evenodd" fill-opacity="1" stroke="none"></circle>
<circle clip-path="url(#clip142)" cx="2129.89" cy="559.319" r="14.4" fill="#000000" fill-rule="evenodd" fill-opacity="1" stroke="none"></circle>
<circle clip-path="url(#clip142)" cx="2170.41" cy="601.199" r="14.4" fill="#000000" fill-rule="evenodd" fill-opacity="1" stroke="none"></circle>
<circle clip-path="url(#clip142)" cx="2210.93" cy="651.472" r="14.4" fill="#000000" fill-rule="evenodd" fill-opacity="1" stroke="none"></circle>
<circle clip-path="url(#clip142)" cx="2251.45" cy="708.804" r="14.4" fill="#000000" fill-rule="evenodd" fill-opacity="1" stroke="none"></circle>
<circle clip-path="url(#clip142)" cx="2291.97" cy="771.321" r="14.4" fill="#000000" fill-rule="evenodd" fill-opacity="1" stroke="none"></circle>
<circle clip-path="url(#clip142)" cx="265.903" cy="1384.24" r="14.4" fill="#000000" fill-rule="evenodd" fill-opacity="1" stroke="none"></circle>
<circle clip-path="url(#clip142)" cx="306.425" cy="1383.88" r="14.4" fill="#000000" fill-rule="evenodd" fill-opacity="1" stroke="none"></circle>
<circle clip-path="url(#clip142)" cx="346.946" cy="1383.48" r="14.4" fill="#000000" fill-rule="evenodd" fill-opacity="1" stroke="none"></circle>
<circle clip-path="url(#clip142)" cx="387.467" cy="1383.04" r="14.4" fill="#000000" fill-rule="evenodd" fill-opacity="1" stroke="none"></circle>
<circle clip-path="url(#clip142)" cx="427.989" cy="1382.57" r="14.4" fill="#000000" fill-rule="evenodd" fill-opacity="1" stroke="none"></circle>
<circle clip-path="url(#clip142)" cx="468.51" cy="1382.04" r="14.4" fill="#000000" fill-rule="evenodd" fill-opacity="1" stroke="none"></circle>
<circle clip-path="url(#clip142)" cx="509.032" cy="1381.47" r="14.4" fill="#000000" fill-rule="evenodd" fill-opacity="1" stroke="none"></circle>
<circle clip-path="url(#clip142)" cx="549.553" cy="1380.84" r="14.4" fill="#000000" fill-rule="evenodd" fill-opacity="1" stroke="none"></circle>
<circle clip-path="url(#clip142)" cx="590.074" cy="1380.15" r="14.4" fill="#000000" fill-rule="evenodd" fill-opacity="1" stroke="none"></circle>
<circle clip-path="url(#clip142)" cx="630.596" cy="1379.38" r="14.4" fill="#000000" fill-rule="evenodd" fill-opacity="1" stroke="none"></circle>
<circle clip-path="url(#clip142)" cx="671.117" cy="1378.55" r="14.4" fill="#000000" fill-rule="evenodd" fill-opacity="1" stroke="none"></circle>
<circle clip-path="url(#clip142)" cx="711.639" cy="1377.62" r="14.4" fill="#000000" fill-rule="evenodd" fill-opacity="1" stroke="none"></circle>
<circle clip-path="url(#clip142)" cx="752.16" cy="1376.6" r="14.4" fill="#000000" fill-rule="evenodd" fill-opacity="1" stroke="none"></circle>
<circle clip-path="url(#clip142)" cx="792.681" cy="1375.46" r="14.4" fill="#000000" fill-rule="evenodd" fill-opacity="1" stroke="none"></circle>
<circle clip-path="url(#clip142)" cx="833.203" cy="1374.21" r="14.4" fill="#000000" fill-rule="evenodd" fill-opacity="1" stroke="none"></circle>
<circle clip-path="url(#clip142)" cx="873.724" cy="1372.82" r="14.4" fill="#000000" fill-rule="evenodd" fill-opacity="1" stroke="none"></circle>
<circle clip-path="url(#clip142)" cx="914.246" cy="1371.26" r="14.4" fill="#000000" fill-rule="evenodd" fill-opacity="1" stroke="none"></circle>
<circle clip-path="url(#clip142)" cx="954.767" cy="1369.53" r="14.4" fill="#000000" fill-rule="evenodd" fill-opacity="1" stroke="none"></circle>
<circle clip-path="url(#clip142)" cx="995.289" cy="1367.6" r="14.4" fill="#000000" fill-rule="evenodd" fill-opacity="1" stroke="none"></circle>
<circle clip-path="url(#clip142)" cx="1035.81" cy="1365.43" r="14.4" fill="#000000" fill-rule="evenodd" fill-opacity="1" stroke="none"></circle>
<circle clip-path="url(#clip142)" cx="1076.33" cy="1363" r="14.4" fill="#000000" fill-rule="evenodd" fill-opacity="1" stroke="none"></circle>
<circle clip-path="url(#clip142)" cx="1116.85" cy="1360.25" r="14.4" fill="#000000" fill-rule="evenodd" fill-opacity="1" stroke="none"></circle>
<circle clip-path="url(#clip142)" cx="1157.37" cy="1357.15" r="14.4" fill="#000000" fill-rule="evenodd" fill-opacity="1" stroke="none"></circle>
<circle clip-path="url(#clip142)" cx="1197.9" cy="1353.63" r="14.4" fill="#000000" fill-rule="evenodd" fill-opacity="1" stroke="none"></circle>
<circle clip-path="url(#clip142)" cx="1238.42" cy="1349.63" r="14.4" fill="#000000" fill-rule="evenodd" fill-opacity="1" stroke="none"></circle>
<circle clip-path="url(#clip142)" cx="1278.94" cy="1345.07" r="14.4" fill="#000000" fill-rule="evenodd" fill-opacity="1" stroke="none"></circle>
<circle clip-path="url(#clip142)" cx="1319.46" cy="1339.86" r="14.4" fill="#000000" fill-rule="evenodd" fill-opacity="1" stroke="none"></circle>
<circle clip-path="url(#clip142)" cx="1359.98" cy="1333.86" r="14.4" fill="#000000" fill-rule="evenodd" fill-opacity="1" stroke="none"></circle>
<circle clip-path="url(#clip142)" cx="1400.5" cy="1326.96" r="14.4" fill="#000000" fill-rule="evenodd" fill-opacity="1" stroke="none"></circle>
<circle clip-path="url(#clip142)" cx="1441.02" cy="1318.98" r="14.4" fill="#000000" fill-rule="evenodd" fill-opacity="1" stroke="none"></circle>
<circle clip-path="url(#clip142)" cx="1481.55" cy="1309.73" r="14.4" fill="#000000" fill-rule="evenodd" fill-opacity="1" stroke="none"></circle>
<circle clip-path="url(#clip142)" cx="1522.07" cy="1298.95" r="14.4" fill="#000000" fill-rule="evenodd" fill-opacity="1" stroke="none"></circle>
<circle clip-path="url(#clip142)" cx="1562.59" cy="1286.38" r="14.4" fill="#000000" fill-rule="evenodd" fill-opacity="1" stroke="none"></circle>
<circle clip-path="url(#clip142)" cx="1603.11" cy="1271.65" r="14.4" fill="#000000" fill-rule="evenodd" fill-opacity="1" stroke="none"></circle>
<circle clip-path="url(#clip142)" cx="1643.63" cy="1254.36" r="14.4" fill="#000000" fill-rule="evenodd" fill-opacity="1" stroke="none"></circle>
<circle clip-path="url(#clip142)" cx="1684.15" cy="1234.02" r="14.4" fill="#000000" fill-rule="evenodd" fill-opacity="1" stroke="none"></circle>
<circle clip-path="url(#clip142)" cx="1724.67" cy="1210.03" r="14.4" fill="#000000" fill-rule="evenodd" fill-opacity="1" stroke="none"></circle>
<circle clip-path="url(#clip142)" cx="1765.2" cy="1181.72" r="14.4" fill="#000000" fill-rule="evenodd" fill-opacity="1" stroke="none"></circle>
<circle clip-path="url(#clip142)" cx="1805.72" cy="1148.3" r="14.4" fill="#000000" fill-rule="evenodd" fill-opacity="1" stroke="none"></circle>
<circle clip-path="url(#clip142)" cx="1846.24" cy="1108.87" r="14.4" fill="#000000" fill-rule="evenodd" fill-opacity="1" stroke="none"></circle>
<circle clip-path="url(#clip142)" cx="1886.76" cy="1062.45" r="14.4" fill="#000000" fill-rule="evenodd" fill-opacity="1" stroke="none"></circle>
<circle clip-path="url(#clip142)" cx="1927.28" cy="1008.01" r="14.4" fill="#000000" fill-rule="evenodd" fill-opacity="1" stroke="none"></circle>
<circle clip-path="url(#clip142)" cx="1967.8" cy="944.51" r="14.4" fill="#000000" fill-rule="evenodd" fill-opacity="1" stroke="none"></circle>
<circle clip-path="url(#clip142)" cx="2008.32" cy="871.01" r="14.4" fill="#000000" fill-rule="evenodd" fill-opacity="1" stroke="none"></circle>
<circle clip-path="url(#clip142)" cx="2048.85" cy="786.807" r="14.4" fill="#000000" fill-rule="evenodd" fill-opacity="1" stroke="none"></circle>
<circle clip-path="url(#clip142)" cx="2089.37" cy="691.586" r="14.4" fill="#000000" fill-rule="evenodd" fill-opacity="1" stroke="none"></circle>
<circle clip-path="url(#clip142)" cx="2129.89" cy="585.608" r="14.4" fill="#000000" fill-rule="evenodd" fill-opacity="1" stroke="none"></circle>
<circle clip-path="url(#clip142)" cx="2170.41" cy="469.869" r="14.4" fill="#000000" fill-rule="evenodd" fill-opacity="1" stroke="none"></circle>
<circle clip-path="url(#clip142)" cx="2210.93" cy="346.201" r="14.4" fill="#000000" fill-rule="evenodd" fill-opacity="1" stroke="none"></circle>
<circle clip-path="url(#clip142)" cx="2251.45" cy="217.254" r="14.4" fill="#000000" fill-rule="evenodd" fill-opacity="1" stroke="none"></circle>
<circle clip-path="url(#clip142)" cx="2291.97" cy="86.3402" r="14.4" fill="#000000" fill-rule="evenodd" fill-opacity="1" stroke="none"></circle>
<path clip-path="url(#clip140)" d="M276.709 248.629 L945.428 248.629 L945.428 93.1086 L276.709 93.1086  Z" fill="#ffffff" fill-rule="evenodd" fill-opacity="1"></path>
<polyline clip-path="url(#clip140)" style="stroke:#000000; stroke-linecap:round; stroke-linejoin:round; stroke-width:4; stroke-opacity:1; fill:none" points="276.709,248.629 945.428,248.629 945.428,93.1086 276.709,93.1086 276.709,248.629 "></polyline>
<polyline clip-path="url(#clip140)" style="stroke:#ff0000; stroke-linecap:round; stroke-linejoin:round; stroke-width:4; stroke-opacity:1; fill:none" points="300.571,144.949 443.747,144.949 "></polyline>
<path clip-path="url(#clip140)" d="M467.61 127.669 L472.309 127.669 L472.309 148.664 Q472.309 154.219 474.323 156.673 Q476.336 159.104 480.85 159.104 Q485.341 159.104 487.355 156.673 Q489.369 154.219 489.369 148.664 L489.369 127.669 L494.068 127.669 L494.068 149.243 Q494.068 156.002 490.711 159.451 Q487.378 162.9 480.85 162.9 Q474.299 162.9 470.943 159.451 Q467.61 156.002 467.61 149.243 L467.61 127.669 Z" fill="#000000" fill-rule="nonzero" fill-opacity="1"></path><path clip-path="url(#clip140)" d="M507.517 131.511 L507.517 158.386 L513.165 158.386 Q520.318 158.386 523.628 155.145 Q526.961 151.905 526.961 144.914 Q526.961 137.969 523.628 134.752 Q520.318 131.511 513.165 131.511 L507.517 131.511 M502.841 127.669 L512.447 127.669 Q522.494 127.669 527.193 131.858 Q531.892 136.025 531.892 144.914 Q531.892 153.849 527.17 158.039 Q522.447 162.229 512.447 162.229 L502.841 162.229 L502.841 127.669 Z" fill="#000000" fill-rule="nonzero" fill-opacity="1"></path><path clip-path="url(#clip140)" d="M539.345 127.669 L561.197 127.669 L561.197 131.604 L544.021 131.604 L544.021 141.835 L560.48 141.835 L560.48 145.77 L544.021 145.77 L544.021 158.293 L561.614 158.293 L561.614 162.229 L539.345 162.229 L539.345 127.669 Z" fill="#000000" fill-rule="nonzero" fill-opacity="1"></path><path clip-path="url(#clip140)" d="M595.919 132.275 L589.577 149.474 L602.285 149.474 L595.919 132.275 M593.28 127.669 L598.581 127.669 L611.752 162.229 L606.891 162.229 L603.743 153.363 L588.165 153.363 L585.016 162.229 L580.086 162.229 L593.28 127.669 Z" fill="#000000" fill-rule="nonzero" fill-opacity="1"></path><path clip-path="url(#clip140)" d="M620.734 158.34 L620.734 172.09 L616.451 172.09 L616.451 136.303 L620.734 136.303 L620.734 140.238 Q622.076 137.923 624.113 136.812 Q626.174 135.678 629.021 135.678 Q633.743 135.678 636.683 139.428 Q639.646 143.178 639.646 149.289 Q639.646 155.4 636.683 159.15 Q633.743 162.9 629.021 162.9 Q626.174 162.9 624.113 161.789 Q622.076 160.655 620.734 158.34 M635.225 149.289 Q635.225 144.59 633.28 141.928 Q631.359 139.243 627.979 139.243 Q624.6 139.243 622.655 141.928 Q620.734 144.59 620.734 149.289 Q620.734 153.988 622.655 156.673 Q624.6 159.335 627.979 159.335 Q631.359 159.335 633.28 156.673 Q635.225 153.988 635.225 149.289 Z" fill="#000000" fill-rule="nonzero" fill-opacity="1"></path><path clip-path="url(#clip140)" d="M650.826 158.34 L650.826 172.09 L646.544 172.09 L646.544 136.303 L650.826 136.303 L650.826 140.238 Q652.169 137.923 654.206 136.812 Q656.266 135.678 659.113 135.678 Q663.835 135.678 666.775 139.428 Q669.738 143.178 669.738 149.289 Q669.738 155.4 666.775 159.15 Q663.835 162.9 659.113 162.9 Q656.266 162.9 654.206 161.789 Q652.169 160.655 650.826 158.34 M665.317 149.289 Q665.317 144.59 663.373 141.928 Q661.451 139.243 658.072 139.243 Q654.692 139.243 652.748 141.928 Q650.826 144.59 650.826 149.289 Q650.826 153.988 652.748 156.673 Q654.692 159.335 658.072 159.335 Q661.451 159.335 663.373 156.673 Q665.317 153.988 665.317 149.289 Z" fill="#000000" fill-rule="nonzero" fill-opacity="1"></path><path clip-path="url(#clip140)" d="M691.821 140.284 Q691.104 139.868 690.247 139.682 Q689.414 139.474 688.396 139.474 Q684.784 139.474 682.84 141.835 Q680.919 144.173 680.919 148.571 L680.919 162.229 L676.636 162.229 L676.636 136.303 L680.919 136.303 L680.919 140.331 Q682.261 137.969 684.414 136.835 Q686.567 135.678 689.646 135.678 Q690.085 135.678 690.618 135.747 Q691.15 135.794 691.798 135.909 L691.821 140.284 Z" fill="#000000" fill-rule="nonzero" fill-opacity="1"></path><path clip-path="url(#clip140)" d="M705.294 139.289 Q701.868 139.289 699.877 141.974 Q697.886 144.636 697.886 149.289 Q697.886 153.942 699.854 156.627 Q701.845 159.289 705.294 159.289 Q708.696 159.289 710.687 156.604 Q712.678 153.918 712.678 149.289 Q712.678 144.682 710.687 141.997 Q708.696 139.289 705.294 139.289 M705.294 135.678 Q710.849 135.678 714.02 139.289 Q717.192 142.9 717.192 149.289 Q717.192 155.655 714.02 159.289 Q710.849 162.9 705.294 162.9 Q699.715 162.9 696.544 159.289 Q693.396 155.655 693.396 149.289 Q693.396 142.9 696.544 139.289 Q699.715 135.678 705.294 135.678 Z" fill="#000000" fill-rule="nonzero" fill-opacity="1"></path><path clip-path="url(#clip140)" d="M744.344 136.303 L734.969 148.919 L744.83 162.229 L739.807 162.229 L732.261 152.043 L724.715 162.229 L719.692 162.229 L729.761 148.664 L720.548 136.303 L725.571 136.303 L732.446 145.539 L739.321 136.303 L744.344 136.303 Z" fill="#000000" fill-rule="nonzero" fill-opacity="1"></path><path clip-path="url(#clip140)" d="M750.849 136.303 L755.108 136.303 L755.108 162.229 L750.849 162.229 L750.849 136.303 M750.849 126.21 L755.108 126.21 L755.108 131.604 L750.849 131.604 L750.849 126.21 Z" fill="#000000" fill-rule="nonzero" fill-opacity="1"></path><path clip-path="url(#clip140)" d="M784.205 141.28 Q785.802 138.409 788.025 137.044 Q790.247 135.678 793.256 135.678 Q797.307 135.678 799.506 138.525 Q801.705 141.349 801.705 146.581 L801.705 162.229 L797.423 162.229 L797.423 146.719 Q797.423 142.993 796.103 141.187 Q794.784 139.382 792.076 139.382 Q788.765 139.382 786.844 141.581 Q784.923 143.78 784.923 147.576 L784.923 162.229 L780.64 162.229 L780.64 146.719 Q780.64 142.969 779.321 141.187 Q778.002 139.382 775.247 139.382 Q771.983 139.382 770.062 141.604 Q768.14 143.803 768.14 147.576 L768.14 162.229 L763.858 162.229 L763.858 136.303 L768.14 136.303 L768.14 140.331 Q769.599 137.946 771.636 136.812 Q773.673 135.678 776.474 135.678 Q779.298 135.678 781.265 137.113 Q783.256 138.548 784.205 141.28 Z" fill="#000000" fill-rule="nonzero" fill-opacity="1"></path><path clip-path="url(#clip140)" d="M821.983 149.196 Q816.821 149.196 814.83 150.377 Q812.839 151.557 812.839 154.405 Q812.839 156.673 814.321 158.016 Q815.825 159.335 818.395 159.335 Q821.936 159.335 824.066 156.835 Q826.219 154.312 826.219 150.145 L826.219 149.196 L821.983 149.196 M830.478 147.437 L830.478 162.229 L826.219 162.229 L826.219 158.293 Q824.761 160.655 822.585 161.789 Q820.409 162.9 817.261 162.9 Q813.279 162.9 810.918 160.678 Q808.58 158.432 808.58 154.682 Q808.58 150.307 811.497 148.085 Q814.437 145.863 820.247 145.863 L826.219 145.863 L826.219 145.446 Q826.219 142.507 824.274 140.909 Q822.353 139.289 818.858 139.289 Q816.636 139.289 814.529 139.821 Q812.423 140.354 810.478 141.419 L810.478 137.483 Q812.816 136.581 815.015 136.141 Q817.214 135.678 819.298 135.678 Q824.923 135.678 827.7 138.594 Q830.478 141.511 830.478 147.437 Z" fill="#000000" fill-rule="nonzero" fill-opacity="1"></path><path clip-path="url(#clip140)" d="M843.464 128.942 L843.464 136.303 L852.237 136.303 L852.237 139.613 L843.464 139.613 L843.464 153.687 Q843.464 156.858 844.321 157.761 Q845.2 158.664 847.862 158.664 L852.237 158.664 L852.237 162.229 L847.862 162.229 Q842.932 162.229 841.057 160.4 Q839.182 158.548 839.182 153.687 L839.182 139.613 L836.057 139.613 L836.057 136.303 L839.182 136.303 L839.182 128.942 L843.464 128.942 Z" fill="#000000" fill-rule="nonzero" fill-opacity="1"></path><path clip-path="url(#clip140)" d="M857.839 136.303 L862.098 136.303 L862.098 162.229 L857.839 162.229 L857.839 136.303 M857.839 126.21 L862.098 126.21 L862.098 131.604 L857.839 131.604 L857.839 126.21 Z" fill="#000000" fill-rule="nonzero" fill-opacity="1"></path><path clip-path="url(#clip140)" d="M881.057 139.289 Q877.631 139.289 875.64 141.974 Q873.649 144.636 873.649 149.289 Q873.649 153.942 875.617 156.627 Q877.607 159.289 881.057 159.289 Q884.459 159.289 886.45 156.604 Q888.441 153.918 888.441 149.289 Q888.441 144.682 886.45 141.997 Q884.459 139.289 881.057 139.289 M881.057 135.678 Q886.612 135.678 889.783 139.289 Q892.955 142.9 892.955 149.289 Q892.955 155.655 889.783 159.289 Q886.612 162.9 881.057 162.9 Q875.478 162.9 872.307 159.289 Q869.158 155.655 869.158 149.289 Q869.158 142.9 872.307 139.289 Q875.478 135.678 881.057 135.678 Z" fill="#000000" fill-rule="nonzero" fill-opacity="1"></path><path clip-path="url(#clip140)" d="M921.566 146.581 L921.566 162.229 L917.306 162.229 L917.306 146.719 Q917.306 143.039 915.871 141.21 Q914.436 139.382 911.566 139.382 Q908.117 139.382 906.126 141.581 Q904.135 143.78 904.135 147.576 L904.135 162.229 L899.853 162.229 L899.853 136.303 L904.135 136.303 L904.135 140.331 Q905.663 137.993 907.723 136.835 Q909.806 135.678 912.515 135.678 Q916.982 135.678 919.274 138.456 Q921.566 141.21 921.566 146.581 Z" fill="#000000" fill-rule="nonzero" fill-opacity="1"></path><circle clip-path="url(#clip140)" cx="372.159" cy="196.789" r="20.48" fill="#000000" fill-rule="evenodd" fill-opacity="1" stroke="none"></circle>
<path clip-path="url(#clip140)" d="M493.165 209.138 L493.165 199.856 L485.526 199.856 L485.526 196.013 L497.795 196.013 L497.795 210.851 Q495.086 212.772 491.823 213.768 Q488.559 214.74 484.855 214.74 Q476.753 214.74 472.17 210.018 Q467.61 205.272 467.61 196.823 Q467.61 188.351 472.17 183.629 Q476.753 178.884 484.855 178.884 Q488.235 178.884 491.267 179.717 Q494.323 180.55 496.892 182.171 L496.892 187.147 Q494.299 184.948 491.383 183.837 Q488.466 182.726 485.248 182.726 Q478.906 182.726 475.711 186.268 Q472.54 189.809 472.54 196.823 Q472.54 203.814 475.711 207.356 Q478.906 210.897 485.248 210.897 Q487.725 210.897 489.67 210.481 Q491.614 210.041 493.165 209.138 Z" fill="#000000" fill-rule="nonzero" fill-opacity="1"></path><path clip-path="url(#clip140)" d="M521.174 192.124 Q520.457 191.708 519.6 191.522 Q518.767 191.314 517.748 191.314 Q514.137 191.314 512.193 193.675 Q510.271 196.013 510.271 200.411 L510.271 214.069 L505.989 214.069 L505.989 188.143 L510.271 188.143 L510.271 192.171 Q511.614 189.809 513.767 188.675 Q515.92 187.518 518.998 187.518 Q519.438 187.518 519.971 187.587 Q520.503 187.634 521.151 187.749 L521.174 192.124 Z" fill="#000000" fill-rule="nonzero" fill-opacity="1"></path><path clip-path="url(#clip140)" d="M534.646 191.129 Q531.22 191.129 529.23 193.814 Q527.239 196.476 527.239 201.129 Q527.239 205.782 529.207 208.467 Q531.197 211.129 534.646 211.129 Q538.049 211.129 540.04 208.444 Q542.031 205.758 542.031 201.129 Q542.031 196.522 540.04 193.837 Q538.049 191.129 534.646 191.129 M534.646 187.518 Q540.202 187.518 543.373 191.129 Q546.544 194.74 546.544 201.129 Q546.544 207.495 543.373 211.129 Q540.202 214.74 534.646 214.74 Q529.068 214.74 525.896 211.129 Q522.748 207.495 522.748 201.129 Q522.748 194.74 525.896 191.129 Q529.068 187.518 534.646 187.518 Z" fill="#000000" fill-rule="nonzero" fill-opacity="1"></path><path clip-path="url(#clip140)" d="M553.165 203.837 L553.165 188.143 L557.424 188.143 L557.424 203.675 Q557.424 207.356 558.859 209.208 Q560.294 211.036 563.165 211.036 Q566.614 211.036 568.605 208.837 Q570.618 206.638 570.618 202.842 L570.618 188.143 L574.878 188.143 L574.878 214.069 L570.618 214.069 L570.618 210.087 Q569.067 212.448 567.007 213.606 Q564.97 214.74 562.262 214.74 Q557.794 214.74 555.48 211.962 Q553.165 209.184 553.165 203.837 M563.882 187.518 L563.882 187.518 Z" fill="#000000" fill-rule="nonzero" fill-opacity="1"></path><path clip-path="url(#clip140)" d="M605.202 198.421 L605.202 214.069 L600.942 214.069 L600.942 198.559 Q600.942 194.879 599.507 193.05 Q598.072 191.222 595.202 191.222 Q591.753 191.222 589.762 193.421 Q587.771 195.62 587.771 199.416 L587.771 214.069 L583.489 214.069 L583.489 188.143 L587.771 188.143 L587.771 192.171 Q589.299 189.833 591.359 188.675 Q593.442 187.518 596.151 187.518 Q600.618 187.518 602.91 190.296 Q605.202 193.05 605.202 198.421 Z" fill="#000000" fill-rule="nonzero" fill-opacity="1"></path><path clip-path="url(#clip140)" d="M630.757 192.078 L630.757 178.05 L635.016 178.05 L635.016 214.069 L630.757 214.069 L630.757 210.18 Q629.414 212.495 627.354 213.629 Q625.317 214.74 622.447 214.74 Q617.748 214.74 614.785 210.99 Q611.845 207.24 611.845 201.129 Q611.845 195.018 614.785 191.268 Q617.748 187.518 622.447 187.518 Q625.317 187.518 627.354 188.652 Q629.414 189.763 630.757 192.078 M616.243 201.129 Q616.243 205.828 618.164 208.513 Q620.109 211.175 623.488 211.175 Q626.868 211.175 628.813 208.513 Q630.757 205.828 630.757 201.129 Q630.757 196.43 628.813 193.768 Q626.868 191.083 623.488 191.083 Q620.109 191.083 618.164 193.768 Q616.243 196.43 616.243 201.129 Z" fill="#000000" fill-rule="nonzero" fill-opacity="1"></path><path clip-path="url(#clip140)" d="M663.072 180.782 L663.072 188.143 L671.845 188.143 L671.845 191.453 L663.072 191.453 L663.072 205.527 Q663.072 208.698 663.928 209.601 Q664.808 210.504 667.47 210.504 L671.845 210.504 L671.845 214.069 L667.47 214.069 Q662.539 214.069 660.664 212.24 Q658.789 210.388 658.789 205.527 L658.789 191.453 L655.664 191.453 L655.664 188.143 L658.789 188.143 L658.789 180.782 L663.072 180.782 Z" fill="#000000" fill-rule="nonzero" fill-opacity="1"></path><path clip-path="url(#clip140)" d="M692.47 192.124 Q691.752 191.708 690.896 191.522 Q690.062 191.314 689.044 191.314 Q685.433 191.314 683.488 193.675 Q681.567 196.013 681.567 200.411 L681.567 214.069 L677.284 214.069 L677.284 188.143 L681.567 188.143 L681.567 192.171 Q682.909 189.809 685.062 188.675 Q687.215 187.518 690.294 187.518 Q690.733 187.518 691.266 187.587 Q691.798 187.634 692.446 187.749 L692.47 192.124 Z" fill="#000000" fill-rule="nonzero" fill-opacity="1"></path><path clip-path="url(#clip140)" d="M696.497 203.837 L696.497 188.143 L700.757 188.143 L700.757 203.675 Q700.757 207.356 702.192 209.208 Q703.627 211.036 706.497 211.036 Q709.946 211.036 711.937 208.837 Q713.951 206.638 713.951 202.842 L713.951 188.143 L718.21 188.143 L718.21 214.069 L713.951 214.069 L713.951 210.087 Q712.4 212.448 710.34 213.606 Q708.303 214.74 705.595 214.74 Q701.127 214.74 698.812 211.962 Q696.497 209.184 696.497 203.837 M707.215 187.518 L707.215 187.518 Z" fill="#000000" fill-rule="nonzero" fill-opacity="1"></path><path clip-path="url(#clip140)" d="M731.196 180.782 L731.196 188.143 L739.969 188.143 L739.969 191.453 L731.196 191.453 L731.196 205.527 Q731.196 208.698 732.053 209.601 Q732.932 210.504 735.594 210.504 L739.969 210.504 L739.969 214.069 L735.594 214.069 Q730.664 214.069 728.789 212.24 Q726.914 210.388 726.914 205.527 L726.914 191.453 L723.789 191.453 L723.789 188.143 L726.914 188.143 L726.914 180.782 L731.196 180.782 Z" fill="#000000" fill-rule="nonzero" fill-opacity="1"></path><path clip-path="url(#clip140)" d="M767.122 198.421 L767.122 214.069 L762.863 214.069 L762.863 198.559 Q762.863 194.879 761.428 193.05 Q759.992 191.222 757.122 191.222 Q753.673 191.222 751.682 193.421 Q749.692 195.62 749.692 199.416 L749.692 214.069 L745.409 214.069 L745.409 178.05 L749.692 178.05 L749.692 192.171 Q751.219 189.833 753.279 188.675 Q755.363 187.518 758.071 187.518 Q762.539 187.518 764.83 190.296 Q767.122 193.05 767.122 198.421 Z" fill="#000000" fill-rule="nonzero" fill-opacity="1"></path><path clip-path="url(#clip140)" d="M807.747 192.078 L807.747 178.05 L812.006 178.05 L812.006 214.069 L807.747 214.069 L807.747 210.18 Q806.404 212.495 804.344 213.629 Q802.307 214.74 799.437 214.74 Q794.738 214.74 791.775 210.99 Q788.835 207.24 788.835 201.129 Q788.835 195.018 791.775 191.268 Q794.738 187.518 799.437 187.518 Q802.307 187.518 804.344 188.652 Q806.404 189.763 807.747 192.078 M793.233 201.129 Q793.233 205.828 795.154 208.513 Q797.099 211.175 800.478 211.175 Q803.858 211.175 805.802 208.513 Q807.747 205.828 807.747 201.129 Q807.747 196.43 805.802 193.768 Q803.858 191.083 800.478 191.083 Q797.099 191.083 795.154 193.768 Q793.233 196.43 793.233 201.129 Z" fill="#000000" fill-rule="nonzero" fill-opacity="1"></path><path clip-path="url(#clip140)" d="M832.561 201.036 Q827.399 201.036 825.409 202.217 Q823.418 203.397 823.418 206.245 Q823.418 208.513 824.899 209.856 Q826.404 211.175 828.973 211.175 Q832.515 211.175 834.645 208.675 Q836.798 206.152 836.798 201.985 L836.798 201.036 L832.561 201.036 M841.057 199.277 L841.057 214.069 L836.798 214.069 L836.798 210.133 Q835.339 212.495 833.163 213.629 Q830.987 214.74 827.839 214.74 Q823.858 214.74 821.497 212.518 Q819.159 210.272 819.159 206.522 Q819.159 202.147 822.075 199.925 Q825.015 197.703 830.825 197.703 L836.798 197.703 L836.798 197.286 Q836.798 194.347 834.853 192.749 Q832.932 191.129 829.436 191.129 Q827.214 191.129 825.108 191.661 Q823.001 192.194 821.057 193.259 L821.057 189.323 Q823.395 188.421 825.594 187.981 Q827.793 187.518 829.876 187.518 Q835.501 187.518 838.279 190.434 Q841.057 193.351 841.057 199.277 Z" fill="#000000" fill-rule="nonzero" fill-opacity="1"></path><path clip-path="url(#clip140)" d="M854.043 180.782 L854.043 188.143 L862.816 188.143 L862.816 191.453 L854.043 191.453 L854.043 205.527 Q854.043 208.698 854.899 209.601 Q855.779 210.504 858.441 210.504 L862.816 210.504 L862.816 214.069 L858.441 214.069 Q853.51 214.069 851.635 212.24 Q849.76 210.388 849.76 205.527 L849.76 191.453 L846.635 191.453 L846.635 188.143 L849.76 188.143 L849.76 180.782 L854.043 180.782 Z" fill="#000000" fill-rule="nonzero" fill-opacity="1"></path><path clip-path="url(#clip140)" d="M880.2 201.036 Q875.038 201.036 873.047 202.217 Q871.057 203.397 871.057 206.245 Q871.057 208.513 872.538 209.856 Q874.043 211.175 876.612 211.175 Q880.154 211.175 882.283 208.675 Q884.436 206.152 884.436 201.985 L884.436 201.036 L880.2 201.036 M888.695 199.277 L888.695 214.069 L884.436 214.069 L884.436 210.133 Q882.978 212.495 880.802 213.629 Q878.626 214.74 875.478 214.74 Q871.496 214.74 869.135 212.518 Q866.797 210.272 866.797 206.522 Q866.797 202.147 869.714 199.925 Q872.654 197.703 878.464 197.703 L884.436 197.703 L884.436 197.286 Q884.436 194.347 882.492 192.749 Q880.57 191.129 877.075 191.129 Q874.853 191.129 872.746 191.661 Q870.64 192.194 868.696 193.259 L868.696 189.323 Q871.033 188.421 873.233 187.981 Q875.432 187.518 877.515 187.518 Q883.14 187.518 885.918 190.434 Q888.695 193.351 888.695 199.277 Z" fill="#000000" fill-rule="nonzero" fill-opacity="1"></path></svg>